<svg xmlns="http://www.w3.org/2000/svg" viewBox="0 0 100 100">
  <rect x="0" y="0" width="100" height="100" rx="20" fill="#2563eb"/>
  <path d="M72.9,50c0-12.7-10.3-23-23-23S27,37.3,27,50c0,1,0.1,2,0.2,3c-1.8,0.3-3.2,1.9-3.2,3.8v9.2c0,2.1,1.7,3.8,3.8,3.8h3.8
	c1.1,0,2-0.9,2-2V50.8c0-11,9-20,20-20s20,9,20,20v14.1c0,1.1,0.9,2,2,2h3.8c2.1,0,3.8-1.7,3.8-3.8v-9.2C76.2,52,74.7,50.3,72.9,50z
	 M30.8,63.1h-2.3c-0.4,0-0.8-0.3-0.8-0.8v-7.7c0-0.4,0.3-0.8,0.8-0.8h2.3V63.1z M72.2,63.1h-2.3v-9.2h2.3c0.4,0,0.8,0.3,0.8,0.8
	v7.7C73,62.7,72.7,63.1,72.2,63.1z" fill="white"/>
</svg>
